<svg width="24" height="24" viewBox="0 0 24 24" fill="none" xmlns="http://www.w3.org/2000/svg">
<path d="M8 13.4344C8 13.8869 8.29517 14.1851 8.76336 14.1851H11.3181V15.9949C11.3181 17.0129 11.7964 18 12 18C12.1934 18 12.6819 17.0129 12.6819 15.9949V14.1851H15.2265C15.6947 14.1851 16 13.8869 16 13.4344C16 12.3445 15.0941 11.2236 13.6794 10.6992L13.5165 8.33419C14.2494 7.9126 14.8397 7.43959 15.1043 7.10026C15.2366 6.92545 15.3079 6.73008 15.3079 6.56555C15.3079 6.2365 15.0636 6 14.687 6H9.31298C8.93639 6 8.68193 6.2365 8.68193 6.56555C8.68193 6.73008 8.75318 6.93573 8.90585 7.11054C9.17048 7.44987 9.75064 7.9126 10.4835 8.33419L10.3206 10.6992C8.90585 11.2236 8 12.3445 8 13.4344Z" fill="white"/>
</svg>
